<?xml version="1.0" encoding="UTF-8"?>
<!-- Generated by Pixelmator Pro 3.7 -->
<svg width="1024" height="1024" viewBox="0 0 1024 1024" xmlns="http://www.w3.org/2000/svg">
    <path id="mine" fill="#000000" fill-rule="evenodd" stroke="none" d="M 542 902 L 482 902 L 482 782 L 362 782 L 362 722 L 302 722 L 302 782 L 242 782 L 242 722 L 302 722 L 302 662 L 242 662 L 242 542 L 122 542 L 122 482 L 242 482 L 242 362 L 302 362 L 302 302 L 242 302 L 242 242 L 302 242 L 302 302 L 362 302 L 362 242 L 482 242 L 482 122 L 542 122 L 542 242 L 662 242 L 662 302 L 722 302 L 722 242 L 782 242 L 782 302 L 722 302 L 722 362 L 782 362 L 782 482 L 902 482 L 902 542 L 782 542 L 782 662 L 722 662 L 722 722 L 782 722 L 782 782 L 722 782 L 722 722 L 662 722 L 662 782 L 542 782 L 542 902 Z M 482 362 L 482 482 L 362 482 L 362 362 L 482 362 Z"/>
</svg>
